<?xml version="1.0" encoding="UTF-8"?>
<svg xmlns="http://www.w3.org/2000/svg" viewBox="0 0 228.61 537.78">
  <defs>
    <style>
      .cls-1 {
        isolation: isolate;
      }

      .cls-2 {
        mix-blend-mode: multiply;
      }
    </style>
  </defs>
  <g class="cls-1">
    <g id="Layer_1" data-name="Layer 1">
      <g>
        <path class="cls-2" d="M164.73,32.15l-19.97-19.97c-16.22-16.23-42.63-16.23-58.85,0l-20.14,20.14C29.47,32.51,0,62.09,0,98.43v391.22c0,2.94,2.38,5.31,5.31,5.31h40.76c2.93,0,5.31-2.38,5.31-5.31s-2.38-5.31-5.31-5.31H10.63V98.43c0-30.6,24.89-55.49,55.49-55.49h1.85c1.41,0,2.76-.56,3.76-1.56l21.7-21.7c12.08-12.08,31.74-12.08,43.82,0l21.49,21.49c1,1,2.35,1.56,3.76,1.56,30.6,0,55.49,24.89,55.49,55.49v386.11h-33.75c-2.94,0-5.31,2.38-5.31,5.31s2.38,5.31,5.31,5.31h39.07c2.93,0,5.31-2.38,5.31-5.31V98.22c0-35.71-28.45-64.89-63.88-66.08Z"/>
        <path class="cls-2" d="M27.6,180.48l67.69,67.49h-22.07c-.12,0-.23.04-.32.12-10.25,9.16-3.9,20.7,5.14,20.7h16.7l-37.8,37.8,14.45,14.45h0s35.56,35.56,35.56,35.56c2.03,2.03,4.7,3.05,7.36,3.05s5.33-1.02,7.36-3.05l35.66-35.66,18.99,18.99c2.03,2.03,4.7,3.05,7.36,3.05,5.72,0,11.44-4.69,10.92-14.05,0-.09-.06-.23-.13-.29l-68.7-68.7c-.77-.77-1.63-1.39-2.54-1.87l78.14-77.84-87.13-87.19-.23.17L27.37,180.24l.23.23ZM142.23,306.59l-27.92,27.92-27.92-27.92,26.73-26.73,1.2-1.18s0,0,0,0h0s27.92,27.92,27.92,27.92ZM114.3,122.74l57.4,57.4-1.81,1.81-.03-.04-55.55,55.55s.01.02.03.04l-.03.03-57.4-57.4,57.4-57.4Z"/>
        <path class="cls-2" d="M48.22,130.49l11.88-11.88h0s55.52-55.52,55.52-55.52l64.75,64.75c4.07,4.06,10.65,4.06,14.72,0,4.06-4.07,4.06-10.66,0-14.72L116.1,34.27l-.68-.51L33.5,115.77c-4.06,4.06-4.06,10.66,0,14.72,2.03,2.03,4.7,3.05,7.36,3.05s5.33-1.02,7.36-3.05Z"/>
        <path class="cls-2" d="M184.53,368.78H44.07c-5.75,0-10.41,4.66-10.41,10.41s4.66,10.41,10.41,10.41h140.46c5.75,0,10.41-4.66,10.41-10.41s-4.66-10.41-10.41-10.41Z"/>
        <rect class="cls-2" x="95.54" y="161.37" width="37.53" height="37.53" transform="translate(-93.9 133.58) rotate(-45)"/>
        <rect class="cls-2" x="95.54" y="432.6" width="37.53" height="37.53" transform="translate(-285.68 213.02) rotate(-45)"/>
        <path class="cls-2" d="M182.39,470.05l-.07-.09,18.69-18.8-49.35-49.28c-4.07-4.06-10.65-4.06-14.72,0-4.06,4.06-4.06,10.66,0,14.72l34.76,34.76-1.82,1.82-.03-.04-55.55,55.55s0,.01.03.03l-.03.03-57.4-57.4,31.98-31.97c4.06-4.06,4.06-10.65,0-14.72-4.07-4.06-10.65-4.06-14.72,0l-46.67,46.72,1.48,1.65,85.82,84.74h.11l41-41.25,26.48-26.48Z"/>
      </g>
    </g>
  </g>
</svg>